<svg xmlns="http://www.w3.org/2000/svg" xmlns:xlink="http://www.w3.org/1999/xlink" width="500" zoomAndPan="magnify" viewBox="0 0 375 374.999991" height="500" preserveAspectRatio="xMidYMid meet" version="1.0"><defs><g/><clipPath id="09cea91223"><path d="M 11.628906 11.628906 L 363.371094 11.628906 L 363.371094 363.371094 L 11.628906 363.371094 Z M 11.628906 11.628906 " clip-rule="nonzero"/></clipPath><clipPath id="7c9227d350"><path d="M 31.128906 11.628906 L 343.871094 11.628906 C 349.042969 11.628906 354.003906 13.679688 357.660156 17.339844 C 361.320312 20.996094 363.371094 25.957031 363.371094 31.128906 L 363.371094 343.871094 C 363.371094 349.042969 361.320312 354.003906 357.660156 357.660156 C 354.003906 361.320312 349.042969 363.371094 343.871094 363.371094 L 31.128906 363.371094 C 25.957031 363.371094 20.996094 361.320312 17.339844 357.660156 C 13.679688 354.003906 11.628906 349.042969 11.628906 343.871094 L 11.628906 31.128906 C 11.628906 25.957031 13.679688 20.996094 17.339844 17.339844 C 20.996094 13.679688 25.957031 11.628906 31.128906 11.628906 Z M 31.128906 11.628906 " clip-rule="nonzero"/></clipPath><clipPath id="88ac4ec5ae"><path d="M 46.613281 82.039062 L 112 82.039062 L 112 292.789062 L 46.613281 292.789062 Z M 46.613281 82.039062 " clip-rule="nonzero"/></clipPath><clipPath id="c955b49db5"><path d="M 265 82.039062 L 329.234375 82.039062 L 329.234375 292.789062 L 265 292.789062 Z M 265 82.039062 " clip-rule="nonzero"/></clipPath></defs><g clip-path="url(#09cea91223)"><g clip-path="url(#7c9227d350)"><path fill="#f4f6fc" d="M 11.628906 11.628906 L 363.371094 11.628906 L 363.371094 363.371094 L 11.628906 363.371094 Z M 11.628906 11.628906 " fill-opacity="1" fill-rule="nonzero"/></g></g><g clip-path="url(#88ac4ec5ae)"><path fill="#0d1117" d="M 105.425781 105.457031 L 111.304688 105.457031 L 111.304688 82.039062 L 105.425781 82.039062 C 85.953125 82.039062 70.164062 97.765625 70.164062 117.164062 L 70.164062 158.144531 C 70.164062 161.828125 68.421875 165.296875 65.460938 167.507812 L 51.359375 178.046875 C 48.535156 180.15625 46.8125 183.417969 46.667969 186.925781 C 46.519531 190.4375 47.964844 193.832031 50.601562 196.164062 L 66.21875 209.988281 C 68.726562 212.210938 70.164062 215.394531 70.164062 218.738281 L 70.164062 257.664062 C 70.164062 277.0625 85.953125 292.789062 105.425781 292.789062 L 111.304688 292.789062 L 111.304688 269.371094 L 105.425781 269.371094 C 98.933594 269.371094 93.671875 264.128906 93.671875 257.664062 L 93.671875 218.738281 C 93.671875 208.707031 89.363281 199.152344 81.835938 192.484375 L 76.972656 188.179688 L 79.566406 186.242188 C 88.445312 179.609375 93.671875 169.199219 93.671875 158.144531 L 93.671875 117.164062 C 93.671875 110.699219 98.933594 105.457031 105.425781 105.457031 Z M 105.425781 105.457031 " fill-opacity="1" fill-rule="evenodd"/></g><g clip-path="url(#c955b49db5)"><path fill="#0d1117" d="M 271.246094 105.457031 L 265.367188 105.457031 L 265.367188 82.039062 L 271.246094 82.039062 C 290.722656 82.039062 306.507812 97.765625 306.507812 117.164062 L 306.507812 158.144531 C 306.507812 161.828125 308.25 165.296875 311.210938 167.507812 L 325.316406 178.046875 C 328.136719 180.15625 329.859375 183.417969 330.007812 186.925781 C 330.152344 190.4375 328.707031 193.832031 326.070312 196.164062 L 310.453125 209.988281 C 307.945312 212.210938 306.507812 215.394531 306.507812 218.738281 L 306.507812 257.664062 C 306.507812 277.0625 290.722656 292.789062 271.246094 292.789062 L 265.367188 292.789062 L 265.367188 269.371094 L 271.246094 269.371094 C 277.738281 269.371094 283 264.128906 283 257.664062 L 283 218.738281 C 283 208.707031 287.308594 199.152344 294.839844 192.484375 L 299.699219 188.179688 L 297.105469 186.242188 C 288.226562 179.609375 283 169.199219 283 158.144531 L 283 117.164062 C 283 110.699219 277.738281 105.457031 271.246094 105.457031 Z M 271.246094 105.457031 " fill-opacity="1" fill-rule="evenodd"/></g><g fill="#0d1117" fill-opacity="1"><g transform="translate(118.034986, 269.733729)"><g><path d="M 87.15625 -71.234375 L 44.835938 -141.210938 C 42.949219 -144.351562 40.4375 -146.65625 36.035156 -146.65625 L 6.074219 -146.65625 C 2.722656 -146.65625 1.257812 -143.933594 2.722656 -141.210938 L 51.332031 -64.53125 L 51.332031 -5.449219 C 51.332031 -2.09375 52.585938 0 55.941406 0 L 82.546875 0 C 85.898438 0 87.15625 -2.09375 87.15625 -5.449219 L 87.15625 -64.320312 L 136.390625 -141.210938 C 137.441406 -143.933594 136.390625 -146.65625 133.039062 -146.65625 L 90.300781 -146.65625 C 85.898438 -146.65625 85.691406 -143.933594 87.996094 -141.210938 L 109.785156 -107.480469 Z M 87.15625 -71.234375 "/></g></g></g></svg>